<svg xmlns="http://www.w3.org/2000/svg" xmlns:xlink="http://www.w3.org/1999/xlink" width="196" height="13" viewBox="0 0 196 13">
  <defs>
    <polygon id="tensure-logo-header-a" points=".248 .217 17.196 .217 17.196 12.525 .248 12.525"/>
    <polygon id="tensure-logo-header-c" points=".444 .217 16.919 .217 16.919 12.525 .444 12.525"/>
    <polygon id="tensure-logo-header-e" points=".167 .217 14.946 .217 14.946 12.536 .167 12.536"/>
  </defs>
  <g fill="none" fill-rule="evenodd">
    <polygon fill="#0A2949" points="0 .464 0 2.961 6.569 2.961 6.568 12.772 10.217 12.772 10.237 2.961 16.786 2.961 16.786 .464"/>
    <polygon fill="#0A2949" points="30.619 .464 30.619 12.772 45.398 12.772 45.399 10.352 34.187 10.352 34.187 7.673 43.168 7.673 43.168 5.309 34.187 5.309 34.187 2.961 45.399 2.961 45.398 .464"/>
    <polygon fill="#0A2949" points="71.517 .464 71.551 9.35 62.683 .464 59.233 .464 59.232 12.772 62.691 12.772 62.691 3.972 71.517 12.772 74.975 12.783 74.975 .464"/>
    <g transform="translate(88.501 .248)">
      <path fill="#0A2949" d="M0.307854374,9.08226429 L3.65282837,8.50562143 C4.11942884,9.59483571 5.63970307,10.4115143 9.16723972,10.4115143 C12.6136889,10.4115143 13.9717882,9.94722857 13.9717882,9.08226429 C13.9717882,7.97772857 12.3500388,7.8013 9.00506478,7.52922857 C5.37605296,7.24090714 1.13911678,6.85694286 1.13911678,3.91012143 C1.13911678,1.52462143 3.89609078,0.227407143 8.9239773,0.227407143 C14.4787007,0.227407143 16.4048757,1.76465714 17.1142752,3.01358571 L13.8300009,3.91012143 C13.282313,3.01358571 11.8028142,2.45319286 8.9035896,2.45319286 C5.96451631,2.45319286 4.60595366,2.86965714 4.60595366,3.67008571 C4.60595366,4.72726429 6.06552813,4.87119286 9.30949031,5.12701429 C13.0191262,5.41533571 17.4590128,5.76772857 17.4590128,8.81019286 C17.4590128,10.7318714 15.7154005,12.5249429 9.22793948,12.5249429 C3.08521608,12.5249429 1.0172539,10.9236214 0.307854374,9.08226429"/>
      <g transform="translate(31.045)">
        <mask id="tensure-logo-header-b" fill="#fff">
          <use xlink:href="#tensure-logo-header-a"/>
        </mask>
        <path fill="#0A2949" d="M0.248081324,7.49761071 L0.248081324,0.216682143 L3.70611442,0.216682143 L3.70657778,7.43539643 C3.70657778,9.25028929 5.6814052,10.0279679 8.76226572,10.0279679 C11.8236652,10.0279679 13.7303792,9.24564643 13.7303792,7.43075357 L13.7299158,0.216682143 L17.195826,0.216682143 L17.195826,7.49761071 C17.195826,10.7271821 14.1752019,12.5248964 8.72241702,12.5248964 C3.28909314,12.5248964 0.248081324,10.7271821 0.248081324,7.49761071" mask="url(#tensure-logo-header-b)"/>
      </g>
      <g transform="translate(61.626)">
        <mask id="tensure-logo-header-d" fill="#fff">
          <use xlink:href="#tensure-logo-header-c"/>
        </mask>
        <path fill="#0A2949" d="M10.6012369,5.76016071 C12.4259366,5.76016071 13.2771234,5.29401786 13.2771234,4.21223214 C13.2771234,3.11326786 12.4259366,2.647125 10.6012369,2.647125 L3.9715253,2.647125 L3.9715253,5.76016071 L10.6012369,5.76016071 Z M0.444452009,0.216589286 L10.7226364,0.216589286 C14.4934355,0.216589286 16.7439603,1.29883929 16.7439603,4.12866071 C16.7439603,6.64694643 14.5606222,7.55416071 12.4727357,8.07044643 L16.9186459,12.5248036 L13.152017,12.5248036 L8.7024,8.06673214 L3.9715253,8.07416071 L3.9715253,12.5248036 L0.516735697,12.5248036 L0.444452009,0.216589286 Z" mask="url(#tensure-logo-header-d)"/>
      </g>
      <g transform="translate(92.208)">
        <mask id="tensure-logo-header-f" fill="#fff">
          <use xlink:href="#tensure-logo-header-e"/>
        </mask>
        <polygon fill="#0A2949" points=".167 .217 14.946 .217 14.946 2.714 3.735 2.714 3.735 5.061 12.716 5.061 12.716 7.425 3.735 7.425 3.735 10.105 14.946 10.105 14.946 12.536 .167 12.536" mask="url(#tensure-logo-header-f)"/>
      </g>
    </g>
  </g>
</svg>
