<svg xmlns="http://www.w3.org/2000/svg" xmlns:xlink="http://www.w3.org/1999/xlink" width="113" height="60" viewBox="0 0 113 60">
  <defs>
    <polygon id="footer-tensure-icon-a" points="0 0 112.452 0 112.452 59.511 0 59.511"/>
  </defs>
  <g fill="none" fill-rule="evenodd">
    <mask id="footer-tensure-icon-b" fill="#fff">
      <use xlink:href="#footer-tensure-icon-a"/>
    </mask>
    <path fill="#21BCAC" d="M67.3416395,41.7456818 L77.7910946,31.2156818 C78.5915677,30.4097727 78.5915677,29.1020455 77.7910946,28.2954545 L76.2402204,26.7327273 C75.4397473,25.9268182 75.4397473,24.6190909 76.2395437,23.8131818 L77.0237772,23.0222727 C77.8235737,22.2156818 79.1220587,22.215 79.9218551,23.0222727 L85.1557174,28.2954545 C85.9561904,29.1020455 85.9561904,30.4097727 85.1557174,31.2156818 L74.7055856,41.7456818 C73.9051126,42.5522727 73.9051126,43.8593182 74.7055856,44.6659091 L81.473406,51.4854545 C82.273879,52.2920455 83.5710108,52.2920455 84.3714838,51.4854545 L104.487514,31.2156818 C105.288663,30.4097727 105.288663,29.1020455 104.487514,28.2954545 L84.3714838,8.02568182 C83.5710108,7.21909091 82.273879,7.21909091 81.473406,8.02568182 L30.9793222,58.9063636 C30.1788491,59.7129545 28.8810407,59.7129545 28.0812443,58.9063636 L0.59991497,31.215 C-0.199881437,30.4090909 -0.199881437,29.1013636 0.59991497,28.2947727 L28.0690647,0.604772727 C28.8695377,-0.201136364 30.1666695,-0.201818182 30.9671425,0.604090909 L45.110412,14.8452273 C45.910885,15.6518182 45.9115617,16.9595455 45.1110886,17.7661364 L34.6616335,28.2954545 C33.8611605,29.1020455 33.8611605,30.4097727 34.6616335,31.2156818 L36.2131844,32.7790909 C37.0129808,33.5856818 37.0129808,34.8934091 36.2125078,35.6993182 L35.4282743,36.4895455 C34.6278012,37.2961364 33.3306695,37.2961364 32.5301964,36.4895455 L27.2970108,31.2156818 C26.4965377,30.4097727 26.4965377,29.1020455 27.2970108,28.2954545 L37.7471425,17.7654545 C38.5469389,16.9588636 38.5469389,15.6518182 37.7471425,14.8452273 L30.9793222,8.02568182 C30.1788491,7.21909091 28.8810407,7.21909091 28.0812443,8.02568182 L7.96521437,28.2954545 C7.16474132,29.1020455 7.16474132,30.4097727 7.96521437,31.2156818 L28.0812443,51.4854545 C28.8810407,52.2920455 30.1788491,52.2920455 30.9793222,51.4854545 L81.473406,0.605454545 C82.273879,-0.201136364 83.5710108,-0.201136364 84.3714838,0.605454545 L111.852137,28.2954545 C112.651933,29.1020455 112.651933,30.4097727 111.852137,31.2156818 L84.3714838,58.9063636 C83.5710108,59.7129545 82.273879,59.7129545 81.473406,58.9056818 L67.3416395,44.6659091 C66.5411665,43.8593182 66.5411665,42.5522727 67.3416395,41.7456818" mask="url(#footer-tensure-icon-b)"/>
  </g>
</svg>
